<svg width="26" height="27" viewBox="0 0 26 27" fill="none" xmlns="http://www.w3.org/2000/svg">
<g filter="url(#filter0_d_403_333)">
<path d="M10.3419 1.6665L7.3252 4.6915" stroke="white" stroke-width="1.2" stroke-miterlimit="10" stroke-linecap="round" stroke-linejoin="round"/>
<path d="M15.6582 1.6665L18.6749 4.6915" stroke="white" stroke-width="1.2" stroke-miterlimit="10" stroke-linecap="round" stroke-linejoin="round"/>
<path d="M4.66699 6.54167C4.66699 5 5.49199 4.875 6.51699 4.875H19.4837C20.5087 4.875 21.3337 5 21.3337 6.54167C21.3337 8.33333 20.5087 8.20833 19.4837 8.20833H6.51699C5.49199 8.20833 4.66699 8.33333 4.66699 6.54167Z" stroke="white" stroke-width="1.2"/>
<path d="M11.1338 11.6665V14.6248" stroke="white" stroke-width="1.2" stroke-linecap="round"/>
<path d="M14.9668 11.6665V14.6248" stroke="white" stroke-width="1.2" stroke-linecap="round"/>
<path d="M5.91699 8.3335L7.09199 15.5335C7.35866 17.1502 8.00033 18.3335 10.3837 18.3335H15.4087C18.0003 18.3335 18.3837 17.2002 18.6837 15.6335L20.0837 8.3335" stroke="white" stroke-width="1.2" stroke-linecap="round"/>
</g>
<defs>
<filter id="filter0_d_403_333" x="-1" y="0" width="28" height="28" filterUnits="userSpaceOnUse" color-interpolation-filters="sRGB">
<feFlood flood-opacity="0" result="BackgroundImageFix"/>
<feColorMatrix in="SourceAlpha" type="matrix" values="0 0 0 0 0 0 0 0 0 0 0 0 0 0 0 0 0 0 127 0" result="hardAlpha"/>
<feOffset dy="4"/>
<feGaussianBlur stdDeviation="2"/>
<feComposite in2="hardAlpha" operator="out"/>
<feColorMatrix type="matrix" values="0 0 0 0 0 0 0 0 0 0 0 0 0 0 0 0 0 0 0.25 0"/>
<feBlend mode="normal" in2="BackgroundImageFix" result="effect1_dropShadow_403_333"/>
<feBlend mode="normal" in="SourceGraphic" in2="effect1_dropShadow_403_333" result="shape"/>
</filter>
</defs>
</svg>
